<svg width="50" height="50" viewBox="0 0 50 50" fill="none" xmlns="http://www.w3.org/2000/svg">
<g clip-path="url(#clip0_327_5636)">
<path d="M46.4844 6.25H3.51562C2.79067 6.2508 2.09564 6.53914 1.58301 7.05177C1.07039 7.56439 0.782051 8.25942 0.78125 8.98438V38.6719C0.782051 39.3968 1.07039 40.0919 1.58301 40.6045C2.09564 41.1171 2.79067 41.4054 3.51562 41.4062H18.4951L17.3799 45.3125H14.0625C13.8553 45.3125 13.6566 45.3948 13.5101 45.5413C13.3636 45.6878 13.2812 45.8866 13.2812 46.0938V48.4375C13.2812 48.6447 13.3636 48.8434 13.5101 48.9899C13.6566 49.1364 13.8553 49.2188 14.0625 49.2188H35.9375C36.1447 49.2188 36.3434 49.1364 36.4899 48.9899C36.6364 48.8434 36.7188 48.6447 36.7188 48.4375V46.0938C36.7188 45.8866 36.6364 45.6878 36.4899 45.5413C36.3434 45.3948 36.1447 45.3125 35.9375 45.3125H32.6201L31.5049 41.4062H46.4844C47.2093 41.4054 47.9044 41.1171 48.417 40.6045C48.9296 40.0919 49.2179 39.3968 49.2188 38.6719V8.98438C49.2179 8.25942 48.9296 7.56439 48.417 7.05177C47.9044 6.53914 47.2093 6.2508 46.4844 6.25ZM35.1562 46.875V47.6562H14.8438V46.875H35.1562ZM19.0049 45.3125L20.1201 41.4062H29.8799L30.9951 45.3125H19.0049ZM47.6562 38.6719C47.656 38.9826 47.5324 39.2805 47.3127 39.5002C47.093 39.7199 46.7951 39.8435 46.4844 39.8438H3.51562C3.2049 39.8435 2.90698 39.7199 2.68727 39.5002C2.46756 39.2805 2.34401 38.9826 2.34375 38.6719V36.7188H47.6562V38.6719ZM47.6562 35.1562H2.34375V8.98438C2.34401 8.67365 2.46756 8.37573 2.68727 8.15602C2.90698 7.93631 3.2049 7.81276 3.51562 7.8125H46.4844C46.7951 7.81276 47.093 7.93631 47.3127 8.15602C47.5324 8.37573 47.656 8.67365 47.6562 8.98438V35.1562Z" fill="#FF8D27"/>
<path d="M4.6875 15.625H7.8125C8.0197 15.625 8.21841 15.5427 8.36493 15.3962C8.51144 15.2497 8.59375 15.051 8.59375 14.8438V11.7188C8.59375 11.5115 8.51144 11.3128 8.36493 11.1663C8.21841 11.0198 8.0197 10.9375 7.8125 10.9375H4.6875C4.4803 10.9375 4.28159 11.0198 4.13507 11.1663C3.98856 11.3128 3.90625 11.5115 3.90625 11.7188V14.8438C3.90625 15.051 3.98856 15.2497 4.13507 15.3962C4.28159 15.5427 4.4803 15.625 4.6875 15.625ZM5.46875 12.5H7.03125V14.0625H5.46875V12.5Z" fill="#FF8D27"/>
<path d="M4.6875 21.0938H7.8125C8.0197 21.0938 8.21841 21.0114 8.36493 20.8649C8.51144 20.7184 8.59375 20.5197 8.59375 20.3125V17.1875C8.59375 16.9803 8.51144 16.7816 8.36493 16.6351C8.21841 16.4886 8.0197 16.4062 7.8125 16.4062H4.6875C4.4803 16.4062 4.28159 16.4886 4.13507 16.6351C3.98856 16.7816 3.90625 16.9803 3.90625 17.1875V20.3125C3.90625 20.5197 3.98856 20.7184 4.13507 20.8649C4.28159 21.0114 4.4803 21.0938 4.6875 21.0938ZM5.46875 17.9688H7.03125V19.5312H5.46875V17.9688Z" fill="#FF8D27"/>
<path d="M4.6875 26.5625H7.8125C8.0197 26.5625 8.21841 26.4802 8.36493 26.3337C8.51144 26.1872 8.59375 25.9885 8.59375 25.7812V22.6562C8.59375 22.449 8.51144 22.2503 8.36493 22.1038C8.21841 21.9573 8.0197 21.875 7.8125 21.875H4.6875C4.4803 21.875 4.28159 21.9573 4.13507 22.1038C3.98856 22.2503 3.90625 22.449 3.90625 22.6562V25.7812C3.90625 25.9885 3.98856 26.1872 4.13507 26.3337C4.28159 26.4802 4.4803 26.5625 4.6875 26.5625ZM5.46875 23.4375H7.03125V25H5.46875V23.4375Z" fill="#FF8D27"/>
<path d="M4.6875 32.0312H7.8125C8.0197 32.0312 8.21841 31.9489 8.36493 31.8024C8.51144 31.6559 8.59375 31.4572 8.59375 31.25V28.125C8.59375 27.9178 8.51144 27.7191 8.36493 27.5726C8.21841 27.4261 8.0197 27.3438 7.8125 27.3438H4.6875C4.4803 27.3438 4.28159 27.4261 4.13507 27.5726C3.98856 27.7191 3.90625 27.9178 3.90625 28.125V31.25C3.90625 31.4572 3.98856 31.6559 4.13507 31.8024C4.28159 31.9489 4.4803 32.0312 4.6875 32.0312ZM5.46875 28.9062H7.03125V30.4688H5.46875V28.9062Z" fill="#FF8D27"/>
<path d="M42.1875 15.625H45.3125C45.5197 15.625 45.7184 15.5427 45.8649 15.3962C46.0114 15.2497 46.0938 15.051 46.0938 14.8438V11.7188C46.0938 11.5115 46.0114 11.3128 45.8649 11.1663C45.7184 11.0198 45.5197 10.9375 45.3125 10.9375H42.1875C41.9803 10.9375 41.7816 11.0198 41.6351 11.1663C41.4886 11.3128 41.4062 11.5115 41.4062 11.7188V14.8438C41.4062 15.051 41.4886 15.2497 41.6351 15.3962C41.7816 15.5427 41.9803 15.625 42.1875 15.625ZM42.9688 12.5H44.5312V14.0625H42.9688V12.5Z" fill="#FF8D27"/>
<path d="M42.1875 21.0938H45.3125C45.5197 21.0938 45.7184 21.0114 45.8649 20.8649C46.0114 20.7184 46.0938 20.5197 46.0938 20.3125V17.1875C46.0938 16.9803 46.0114 16.7816 45.8649 16.6351C45.7184 16.4886 45.5197 16.4062 45.3125 16.4062H42.1875C41.9803 16.4062 41.7816 16.4886 41.6351 16.6351C41.4886 16.7816 41.4062 16.9803 41.4062 17.1875V20.3125C41.4062 20.5197 41.4886 20.7184 41.6351 20.8649C41.7816 21.0114 41.9803 21.0938 42.1875 21.0938ZM42.9688 17.9688H44.5312V19.5312H42.9688V17.9688Z" fill="#FF8D27"/>
<path d="M42.1875 26.5625H45.3125C45.5197 26.5625 45.7184 26.4802 45.8649 26.3337C46.0114 26.1872 46.0938 25.9885 46.0938 25.7812V22.6562C46.0938 22.449 46.0114 22.2503 45.8649 22.1038C45.7184 21.9573 45.5197 21.875 45.3125 21.875H42.1875C41.9803 21.875 41.7816 21.9573 41.6351 22.1038C41.4886 22.2503 41.4062 22.449 41.4062 22.6562V25.7812C41.4062 25.9885 41.4886 26.1872 41.6351 26.3337C41.7816 26.4802 41.9803 26.5625 42.1875 26.5625ZM42.9688 23.4375H44.5312V25H42.9688V23.4375Z" fill="#FF8D27"/>
<path d="M42.1875 32.0312H45.3125C45.5197 32.0312 45.7184 31.9489 45.8649 31.8024C46.0114 31.6559 46.0938 31.4572 46.0938 31.25V28.125C46.0938 27.9178 46.0114 27.7191 45.8649 27.5726C45.7184 27.4261 45.5197 27.3438 45.3125 27.3438H42.1875C41.9803 27.3438 41.7816 27.4261 41.6351 27.5726C41.4886 27.7191 41.4062 27.9178 41.4062 28.125V31.25C41.4062 31.4572 41.4886 31.6559 41.6351 31.8024C41.7816 31.9489 41.9803 32.0312 42.1875 32.0312ZM42.9688 28.9062H44.5312V30.4688H42.9688V28.9062Z" fill="#FF8D27"/>
<path d="M16.4122 26.3662L14.9262 29.3381C14.8667 29.4572 14.8385 29.5895 14.8445 29.7226C14.8505 29.8556 14.8904 29.9849 14.9604 30.0982C15.0304 30.2115 15.1282 30.305 15.2445 30.3698C15.3608 30.4347 15.4918 30.4687 15.6249 30.4687H23.4374C23.5706 30.4687 23.7016 30.4347 23.8179 30.3698C23.9342 30.305 24.032 30.2115 24.102 30.0982C24.172 29.9849 24.2119 29.8556 24.2179 29.7226C24.2239 29.5895 24.1957 29.4572 24.1362 29.3381L22.0061 25.0781C23.073 24.1724 23.8048 22.9346 24.0841 21.5632C24.3634 20.1919 24.174 18.7664 23.5463 17.5156C22.9186 16.2648 21.889 15.261 20.6226 14.6653C19.3562 14.0696 17.9264 13.9165 16.5626 14.2306C15.1988 14.5447 13.98 15.3077 13.1017 16.3973C12.2234 17.487 11.7366 18.84 11.7192 20.2394C11.7019 21.6388 12.155 23.0035 13.006 24.1145C13.857 25.2256 15.0565 26.0186 16.4122 26.3664V26.3662ZM22.1739 28.9062H16.889L18.0622 26.5601C18.9728 26.548 19.8696 26.3357 20.6891 25.9384L22.1739 28.9062ZM18.8876 24.909L19.5312 23.6219L19.9907 24.5409C19.6398 24.7092 19.2693 24.8329 18.8876 24.909ZM17.9687 15.625C18.896 15.6245 19.8025 15.8992 20.5735 16.4143C21.3446 16.9294 21.9455 17.6617 22.3001 18.5184C22.6547 19.3752 22.7471 20.318 22.5656 21.2273C22.3841 22.1366 21.9369 22.9716 21.2805 23.6266L20.2299 21.5256C20.165 21.3958 20.0653 21.2867 19.9419 21.2104C19.8185 21.1342 19.6763 21.0938 19.5312 21.0938C19.3861 21.0938 19.2439 21.1342 19.1205 21.2104C18.9971 21.2867 18.8974 21.3958 18.8325 21.5256L17.1332 24.924C15.9812 24.7157 14.9489 24.0838 14.2394 23.1526C13.5298 22.2215 13.1944 21.0585 13.2992 19.8925C13.4039 18.7265 13.9412 17.6419 14.8054 16.8522C15.6696 16.0624 16.798 15.6246 17.9687 15.625Z" fill="#FF8D27"/>
<path d="M24.8209 26.5828L33.8161 29.2242C33.9146 29.2532 34.0178 29.2626 34.1198 29.2517C34.2219 29.2408 34.3208 29.2099 34.4109 29.1607C34.501 29.1115 34.5805 29.045 34.6448 28.965C34.7092 28.8851 34.7571 28.7932 34.7859 28.6947L37.4274 19.6995C37.4563 19.6011 37.4655 19.4979 37.4545 19.3959C37.4436 19.2939 37.4126 19.1951 37.3634 19.105C37.3143 19.015 37.2479 18.9355 37.168 18.8711C37.0881 18.8067 36.9963 18.7587 36.8979 18.7298L27.9026 16.0884C27.8042 16.0595 27.701 16.0503 27.599 16.0612C27.497 16.0722 27.3982 16.1032 27.3081 16.1523C27.2181 16.2015 27.1386 16.2679 27.0742 16.3478C27.0098 16.4277 26.9618 16.5195 26.9329 16.6179L24.2914 25.613C24.2625 25.7115 24.2533 25.8146 24.2642 25.9166C24.2752 26.0187 24.3062 26.1175 24.3553 26.2076C24.4045 26.2976 24.4709 26.3771 24.5508 26.4415C24.6307 26.5058 24.7225 26.5538 24.8209 26.5828ZM28.212 17.8077L35.708 20.0089L33.5068 27.5049L26.0108 25.3037L28.212 17.8077Z" fill="#FF8D27"/>
<path d="M12.9318 3.82373L16.0568 5.38623C16.1653 5.44051 16.2849 5.46876 16.4062 5.46875H35.1562C35.7778 5.46875 36.3739 5.22182 36.8135 4.78228C37.253 4.34274 37.4999 3.7466 37.4999 3.125C37.4999 2.5034 37.253 1.90726 36.8135 1.46772C36.3739 1.02818 35.7778 0.78125 35.1562 0.78125H16.4062C16.2849 0.781237 16.1653 0.80949 16.0568 0.86377L12.9318 2.42627C12.802 2.49116 12.6929 2.5909 12.6167 2.71431C12.5404 2.83772 12.5 2.97993 12.5 3.125C12.5 3.27007 12.5404 3.41228 12.6167 3.53569C12.6929 3.6591 12.802 3.75884 12.9318 3.82373ZM35.9374 3.125C35.9372 3.33213 35.8548 3.53071 35.7084 3.67717C35.5619 3.82363 35.3633 3.90602 35.1562 3.90625H18.7499V2.34375H35.1562C35.3633 2.34398 35.5619 2.42637 35.7084 2.57283C35.8548 2.71929 35.9372 2.91787 35.9374 3.125ZM16.5907 2.34375H17.1874V3.90625H16.5907L15.0282 3.125L16.5907 2.34375Z" fill="#FF8D27"/>
</g>
<defs>
<clipPath id="clip0_327_5636">
<rect width="50" height="50" fill="white"/>
</clipPath>
</defs>
</svg>
