<svg width="50" height="50" viewBox="0 0 50 50" fill="none" xmlns="http://www.w3.org/2000/svg">
<g clip-path="url(#clip0_327_5581)">
<path d="M27.2084 16.8958L30.1563 19.8437C31.5106 21.1979 32.585 22.8057 33.3179 24.5751C34.0509 26.3445 34.4282 28.241 34.4282 30.1562C34.4282 32.0715 34.0509 33.9679 33.3179 35.7374C32.585 37.5068 31.5106 39.1145 30.1563 40.4687L29.4188 41.2041C26.6838 43.9392 22.9742 45.4757 19.1063 45.4757C15.2384 45.4757 11.5288 43.9392 8.7938 41.2041C6.05875 38.4691 4.52222 34.7596 4.52222 30.8916C4.52222 27.0237 6.05875 23.3142 8.7938 20.5791L11.7417 23.5271C10.7675 24.4928 9.99359 25.6414 9.46448 26.9071C8.93536 28.1727 8.66144 29.5304 8.65844 30.9021C8.65543 32.2739 8.92341 33.6328 9.44697 34.9007C9.97054 36.1686 10.7394 37.3207 11.7094 38.2906C12.6794 39.2606 13.8314 40.0295 15.0993 40.553C16.3673 41.0766 17.7261 41.3446 19.0979 41.3416C20.4697 41.3386 21.8273 41.0647 23.093 40.5355C24.3586 40.0064 25.5072 39.2325 26.473 38.2583L27.2105 37.5208C29.1633 35.5674 30.2603 32.9184 30.2603 30.1562C30.2603 27.3941 29.1633 24.7451 27.2105 22.7916L24.2625 19.8437L27.2105 16.8979L27.2084 16.8958ZM41.2042 29.4187L38.2584 26.4729C39.2326 25.5072 40.0065 24.3585 40.5356 23.0929C41.0647 21.8273 41.3386 20.4696 41.3417 19.0978C41.3447 17.726 41.0767 16.3672 40.5531 15.0993C40.0295 13.8313 39.2607 12.6793 38.2907 11.7093C37.3207 10.7393 36.1687 9.97047 34.9008 9.44691C33.6328 8.92334 32.274 8.65536 30.9022 8.65837C29.5304 8.66137 28.1728 8.93529 26.9071 9.46441C25.6415 9.99353 24.4929 10.7674 23.5271 11.7416L22.7896 12.4791C20.8368 14.4326 19.7398 17.0816 19.7398 19.8437C19.7398 22.6059 20.8368 25.2549 22.7896 27.2083L25.7375 30.1562L22.7896 33.1021L19.8438 30.1562C18.4894 28.802 17.4151 27.1943 16.6821 25.4249C15.9492 23.6554 15.5719 21.759 15.5719 19.8437C15.5719 17.9285 15.9492 16.032 16.6821 14.2626C17.4151 12.4932 18.4894 10.8854 19.8438 9.53123L20.5813 8.79581C23.3163 6.06076 27.0259 4.52423 30.8938 4.52423C34.7617 4.52423 38.4712 6.06076 41.2063 8.79581C43.9413 11.5309 45.4779 15.2404 45.4779 19.1083C45.4779 22.9762 43.9413 26.6858 41.2063 29.4208L41.2042 29.4187Z" fill="white"/>
</g>
<defs>
<clipPath id="clip0_327_5581">
<rect width="50" height="50" fill="white"/>
</clipPath>
</defs>
</svg>
