<svg width="50" height="50" viewBox="0 0 50 50" fill="none" xmlns="http://www.w3.org/2000/svg">
<g clip-path="url(#clip0_327_5611)">
<path d="M23.3333 35.8333C23.1433 35.8333 22.9566 35.7692 22.8049 35.645L13.6383 28.145C13.4124 27.96 13.2999 27.6708 13.3408 27.3817L15.0074 15.715C15.0499 15.4167 15.2516 15.1633 15.5333 15.055L26.3666 10.8883C26.6466 10.78 26.9616 10.8316 27.1933 11.0208L36.3599 18.5208C36.5858 18.7058 36.6983 18.995 36.6574 19.2842L34.9908 30.9508C34.9483 31.2492 34.7466 31.5025 34.4649 31.6108L23.6316 35.7775C23.5358 35.8158 23.4341 35.8333 23.3333 35.8333ZM15.0583 27.1525L23.4866 34.0483L33.4116 30.2308L34.9424 19.5142L26.5141 12.6183L16.5891 16.4358L15.0583 27.1525Z" fill="#7971EA"/>
<path d="M18.334 26.6666C18.0282 26.6666 17.734 26.4983 17.5882 26.2058C17.3824 25.7941 17.549 25.2933 17.9607 25.0875L24.2282 21.9533L25.0065 15.7291C25.064 15.2725 25.4807 14.9558 25.9365 15.0058C26.3932 15.0625 26.7174 15.4791 26.6599 15.9358L25.8265 22.6025C25.7924 22.8791 25.6215 23.12 25.3724 23.245L18.7057 26.5783C18.5865 26.6383 18.459 26.6666 18.334 26.6666Z" fill="#7971EA"/>
<path d="M30.8334 28.3333C30.6417 28.3333 30.4484 28.2675 30.2917 28.1325L24.4584 23.1325C24.1092 22.8333 24.0684 22.3075 24.3684 21.9583C24.6676 21.6075 25.1942 21.5675 25.5434 21.8683L31.3767 26.8683C31.7259 27.1675 31.7667 27.6933 31.4667 28.0425C31.3017 28.235 31.0675 28.3333 30.8334 28.3333Z" fill="#7971EA"/>
<path d="M27.5003 5.00004H22.5003C22.0403 5.00004 21.667 4.62754 21.667 4.16671C21.667 3.70587 22.0403 3.33337 22.5003 3.33337H27.5003C27.9603 3.33337 28.3337 3.70587 28.3337 4.16671C28.3337 4.62754 27.9603 5.00004 27.5003 5.00004Z" fill="#7971EA"/>
<path d="M37.5033 50H12.4967C11.12 50 10 48.88 10 47.5034V39.1667C10 38.7059 10.3733 38.3334 10.8333 38.3334H39.1667C39.6267 38.3334 40 38.7059 40 39.1667V47.5034C40 48.88 38.88 50 37.5033 50ZM11.6667 40V47.5034C11.6667 47.9609 12.0392 48.3334 12.4967 48.3334H37.5033C37.9608 48.3334 38.3333 47.9609 38.3333 47.5034V40H11.6667Z" fill="#7971EA"/>
<path d="M25.0003 47.5C23.162 47.5 21.667 46.005 21.667 44.1667C21.667 42.3284 23.162 40.8334 25.0003 40.8334C26.8387 40.8334 28.3337 42.3284 28.3337 44.1667C28.3337 46.005 26.8387 47.5 25.0003 47.5ZM25.0003 42.5C24.0812 42.5 23.3337 43.2475 23.3337 44.1667C23.3337 45.0859 24.0812 45.8334 25.0003 45.8334C25.9195 45.8334 26.667 45.0859 26.667 44.1667C26.667 43.2475 25.9195 42.5 25.0003 42.5Z" fill="#7971EA"/>
<path d="M37.5033 50H12.4967C11.12 50 10 48.88 10 47.5033V2.50167C10 1.1225 11.1217 0 12.5008 0H37.4983C38.8775 0 40 1.1225 40 2.50167V47.5033C40 48.88 38.88 50 37.5033 50ZM12.5008 1.66667C12.0408 1.66667 11.6667 2.04083 11.6667 2.50167V47.5033C11.6667 47.9608 12.0392 48.3333 12.4967 48.3333H37.5033C37.9608 48.3333 38.3333 47.9608 38.3333 47.5033V2.50167C38.3333 2.04083 37.9592 1.66667 37.4983 1.66667H12.5008Z" fill="#7971EA"/>
</g>
<defs>
<clipPath id="clip0_327_5611">
<rect width="50" height="50" fill="white"/>
</clipPath>
</defs>
</svg>
