<svg width="14" height="14" viewBox="0 0 14 14" fill="none" xmlns="http://www.w3.org/2000/svg">
<path fill-rule="evenodd" clip-rule="evenodd" d="M8.16675 4.08333C8.16675 3.43992 7.6435 2.91667 7.00008 2.91667C6.35666 2.91667 5.83341 3.43992 5.83341 4.08333C5.83341 4.72675 6.35666 5.25 7.00008 5.25C7.6435 5.25 8.16675 4.72675 8.16675 4.08333ZM9.33342 4.08333C9.33342 5.37017 8.28692 6.41667 7.00008 6.41667C5.71325 6.41667 4.66675 5.37017 4.66675 4.08333C4.66675 2.7965 5.71325 1.75 7.00008 1.75C8.28692 1.75 9.33342 2.7965 9.33342 4.08333ZM2.91675 11.6667C2.91675 9.415 4.749 7.58333 7.00008 7.58333C9.25117 7.58333 11.0834 9.415 11.0834 11.6667C11.0834 11.9887 10.8227 12.25 10.5001 12.25C10.1775 12.25 9.91675 11.9887 9.91675 11.6667C9.91675 10.0584 8.60833 8.75 7.00008 8.75C5.39183 8.75 4.08341 10.0584 4.08341 11.6667C4.08341 11.9887 3.82266 12.25 3.50008 12.25C3.1775 12.25 2.91675 11.9887 2.91675 11.6667Z" fill="#373737"/>
<mask id="mask0_332_4097" style="mask-type:luminance" maskUnits="userSpaceOnUse" x="2" y="1" width="10" height="12">
<path fill-rule="evenodd" clip-rule="evenodd" d="M8.16675 4.08333C8.16675 3.43992 7.6435 2.91667 7.00008 2.91667C6.35666 2.91667 5.83341 3.43992 5.83341 4.08333C5.83341 4.72675 6.35666 5.25 7.00008 5.25C7.6435 5.25 8.16675 4.72675 8.16675 4.08333ZM9.33342 4.08333C9.33342 5.37017 8.28692 6.41667 7.00008 6.41667C5.71325 6.41667 4.66675 5.37017 4.66675 4.08333C4.66675 2.7965 5.71325 1.75 7.00008 1.75C8.28692 1.75 9.33342 2.7965 9.33342 4.08333ZM2.91675 11.6667C2.91675 9.415 4.749 7.58333 7.00008 7.58333C9.25117 7.58333 11.0834 9.415 11.0834 11.6667C11.0834 11.9887 10.8227 12.25 10.5001 12.25C10.1775 12.25 9.91675 11.9887 9.91675 11.6667C9.91675 10.0584 8.60833 8.75 7.00008 8.75C5.39183 8.75 4.08341 10.0584 4.08341 11.6667C4.08341 11.9887 3.82266 12.25 3.50008 12.25C3.1775 12.25 2.91675 11.9887 2.91675 11.6667Z" fill="white"/>
</mask>
<g mask="url(#mask0_332_4097)">
<rect width="14" height="14" fill="#373737"/>
</g>
</svg>
