<svg width="50" height="50" viewBox="0 0 50 50" fill="none" xmlns="http://www.w3.org/2000/svg">
<g clip-path="url(#clip0_327_5679)">
<path d="M23.5345 36.0814C23.1301 36.0814 22.8022 36.4093 22.8022 36.8137C22.8022 37.2181 23.1301 37.546 23.5345 37.546H26.4656C26.8701 37.546 27.1979 37.2181 27.1979 36.8137C27.1979 36.4093 26.8701 36.0814 26.4656 36.0814H23.5345Z" fill="#373737"/>
<path d="M48.0619 8.18504H41.7396V1.52824C41.7396 0.68552 41.054 0 40.2113 0H9.78846C8.94574 0 8.26022 0.68552 8.26022 1.52824V8.18504H1.93793C0.88041 8.18504 0.0200195 9.04543 0.0200195 10.1029V38.4587C0.0200195 39.5163 0.88041 40.3766 1.93793 40.3766H17.6935V42.8156C17.6935 42.8197 17.6935 42.8237 17.6936 42.8278C17.7338 45.2494 16.6306 47.6491 16.1739 48.5356H13.8483C13.4439 48.5356 13.116 48.8635 13.116 49.2679C13.116 49.6723 13.4439 50.0002 13.8483 50.0002H36.1514C36.5559 50.0002 36.8837 49.6723 36.8837 49.2679C36.8837 48.8635 36.5559 48.5356 36.1514 48.5356H33.8251C33.3681 47.6508 32.2658 45.2582 32.3061 42.8278C32.3061 42.8237 32.3062 42.8197 32.3062 42.8156V40.3766H38.0021C38.4065 40.3766 38.7344 40.0488 38.7344 39.6444C38.7344 39.2399 38.4065 38.9121 38.0021 38.9121H1.93793C1.68798 38.9121 1.4846 38.7087 1.4846 38.4587V34.7157H48.5151V38.4587C48.5151 38.7087 48.3117 38.9121 48.0618 38.9121H41.4193C41.0149 38.9121 40.687 39.2399 40.687 39.6444C40.687 40.0488 41.0149 40.3766 41.4193 40.3766H48.0618C49.1193 40.3766 49.9797 39.5163 49.9797 38.4587V10.1029C49.9797 9.04533 49.1194 8.18504 48.0619 8.18504V8.18504ZM19.158 42.8095V40.3766H30.8418V42.8095C30.8055 45.0872 31.6159 47.2724 32.1951 48.5354H17.8047C18.3839 47.2724 19.1943 45.0872 19.158 42.8095ZM3.79433 13.4923V33.251H1.48469V10.1029C1.48469 9.8529 1.68808 9.64952 1.93803 9.64952H8.26032V11.6718H5.56306C4.58774 11.6719 3.79433 12.4885 3.79433 13.4923V13.4923ZM40.275 33.251H9.7248V27.5554C9.7248 27.151 9.39693 26.8232 8.99251 26.8232C8.58809 26.8232 8.26022 27.151 8.26022 27.5554V33.251H5.25891V13.4923C5.25891 13.2961 5.39531 13.1365 5.56296 13.1365H8.26022V24.1381C8.26022 24.5425 8.58809 24.8704 8.99251 24.8704C9.39693 24.8704 9.7248 24.5425 9.7248 24.1381V1.52824C9.7248 1.49309 9.75331 1.46458 9.78846 1.46458H40.2113C40.2464 1.46458 40.2749 1.49309 40.2749 1.52824V33.251H40.275ZM44.7408 33.251H41.7395V13.1365H44.4368C44.6044 13.1365 44.7408 13.2961 44.7408 13.4923V33.251ZM48.5151 33.251H46.2054V13.4923C46.2054 12.4886 45.412 11.6719 44.4368 11.6719H41.7395V9.64961H48.0618C48.3117 9.64961 48.5151 9.85299 48.5151 10.1029V33.251Z" fill="#373737"/>
<path d="M14.581 18.9437C15.5099 19.5371 16.554 19.8387 17.693 19.8403C18.6558 19.8403 19.5638 19.6288 20.3918 19.2119C22.4397 18.1806 23.5675 16.4574 23.5675 14.3596V7.67199C23.5675 6.32702 22.4733 5.23279 21.1283 5.23279C19.7833 5.23279 18.689 6.32702 18.689 7.67199V14.3596C18.689 14.4757 18.689 14.6074 18.1977 14.8548C18.0526 14.9278 17.8923 14.9618 17.6908 14.9618C17.496 14.9616 17.347 14.9217 17.2074 14.8325C16.8071 14.5768 16.8071 14.4977 16.8071 14.3667V7.67199C16.8071 6.32702 15.7129 5.23279 14.3679 5.23279C13.0229 5.23279 11.9287 6.32702 11.9287 7.67199V14.3667C11.9287 16.2525 12.8458 17.8352 14.581 18.9437V18.9437ZM13.3933 7.67199C13.3933 7.13459 13.8305 6.69737 14.3679 6.69737C14.9053 6.69737 15.3425 7.13459 15.3425 7.67199V14.3667C15.3425 15.0858 15.6544 15.5783 16.4188 16.0667C16.7913 16.3047 17.2186 16.4257 17.693 16.4264C18.1236 16.4264 18.5041 16.3401 18.8563 16.1628C20.019 15.5772 20.1535 14.8532 20.1535 14.3596V7.67199C20.1535 7.13459 20.5907 6.69737 21.1281 6.69737C21.6655 6.69737 22.1027 7.13459 22.1027 7.67199V14.3596C22.1027 15.8975 21.2833 17.1231 19.733 17.9038C19.1111 18.217 18.4248 18.3757 17.6862 18.3757C16.8391 18.3745 16.0595 18.1504 15.3693 17.7094C14.0396 16.8599 13.3932 15.7665 13.3932 14.3667V7.67199H13.3933Z" fill="#373737"/>
<path d="M37.5745 15.9948L34.6843 12.1866L37.0327 9.07214C37.425 8.55193 37.5912 7.91005 37.5007 7.26476C37.4102 6.61956 37.0738 6.04818 36.5537 5.65597C36.0334 5.26356 35.3912 5.09748 34.7461 5.18789C34.1009 5.2784 33.5297 5.61486 33.1374 6.13498L31.6194 8.14829L30.0868 6.12883C29.2736 5.05764 27.7405 4.84752 26.6692 5.66046C25.5979 6.47359 25.3877 8.00671 26.2008 9.0781L28.5672 12.1962L25.828 15.8289C25.4357 16.3491 25.2695 16.9909 25.36 17.6362C25.4506 18.2815 25.7869 18.8529 26.307 19.245C26.7336 19.5667 27.241 19.7368 27.7744 19.7368C28.5477 19.7368 29.2582 19.383 29.7232 18.7661L31.6319 16.2347L33.6883 18.9443C34.1537 19.5574 34.8623 19.9089 35.6326 19.9089C36.1686 19.9089 36.6781 19.7374 37.106 19.4127C37.625 19.0188 37.9596 18.4463 38.0481 17.8008C38.1366 17.1552 37.9685 16.5139 37.5745 15.9948V15.9948ZM36.2208 18.2459C36.0498 18.3756 35.8464 18.4443 35.6328 18.4443C35.3245 18.4443 35.0411 18.3038 34.8551 18.0587L32.2136 14.5781C32.0751 14.3956 31.8593 14.2885 31.6303 14.2885C31.6299 14.2885 31.6295 14.2885 31.6291 14.2885C31.3997 14.2889 31.1837 14.3967 31.0455 14.5798L28.554 17.8841C28.3682 18.1307 28.0841 18.272 27.7745 18.272C27.562 18.272 27.3596 18.2041 27.189 18.0754C26.9811 17.9187 26.8468 17.6904 26.8107 17.4326C26.7745 17.1748 26.8409 16.9183 26.9976 16.7105L30.0703 12.6356C30.2676 12.3739 30.2671 12.013 30.069 11.7519L27.3676 8.19281C27.0427 7.76467 27.1267 7.15199 27.5548 6.82714C27.9829 6.5022 28.5956 6.58627 28.9204 7.01431L31.0381 9.80482C31.1766 9.98731 31.3923 10.0944 31.6214 10.0944H31.6226C31.852 10.0941 32.068 9.98624 32.2062 9.80307L34.3071 7.01676C34.4639 6.80888 34.6921 6.67453 34.9499 6.63831C35.2078 6.60209 35.4642 6.66858 35.6721 6.82548C35.88 6.98219 36.0144 7.21047 36.0505 7.46824C36.0866 7.7261 36.0202 7.9826 35.8634 8.19037L33.1815 11.7472C32.9841 12.0089 32.9847 12.3698 33.1828 12.6309L36.4079 16.8804C36.7328 17.3084 36.6488 17.921 36.2208 18.2459V18.2459Z" fill="#373737"/>
<path d="M37.3386 22.1421H12.661C12.2566 22.1421 11.9287 22.47 11.9287 22.8744C11.9287 23.2788 12.2566 23.6067 12.661 23.6067H37.3386C37.743 23.6067 38.0708 23.2788 38.0708 22.8744C38.0708 22.47 37.7431 22.1421 37.3386 22.1421Z" fill="#373737"/>
<path d="M37.3386 25.1145H12.661C12.2566 25.1145 11.9287 25.4424 11.9287 25.8468C11.9287 26.2512 12.2566 26.5791 12.661 26.5791H37.3386C37.743 26.5791 38.0708 26.2512 38.0708 25.8468C38.0708 25.4424 37.7431 25.1145 37.3386 25.1145Z" fill="#373737"/>
<path d="M37.3386 28.0869H12.661C12.2566 28.0869 11.9287 28.4148 11.9287 28.8192C11.9287 29.2236 12.2566 29.5515 12.661 29.5515H37.3386C37.743 29.5515 38.0708 29.2236 38.0708 28.8192C38.0708 28.4148 37.7431 28.0869 37.3386 28.0869Z" fill="#373737"/>
</g>
<defs>
<clipPath id="clip0_327_5679">
<rect width="50" height="50" fill="white"/>
</clipPath>
</defs>
</svg>
